<?xml version="1.0" encoding="iso-8859-1"?>
<!-- Generator: Adobe Illustrator 19.0.0, SVG Export Plug-In . SVG Version: 6.00 Build 0)  -->
<svg version="1.1" id="Capa_1" xmlns="http://www.w3.org/2000/svg" xmlns:xlink="http://www.w3.org/1999/xlink" x="0px" y="0px"
	 viewBox="0 0 512 512" style="enable-background:new 0 0 512 512;" xml:space="preserve">
<g>
	<path style="fill:#CAE8F9;" d="M184.75,199.75c-3.838,0-7.676-1.465-10.605-4.395l-56.03-56.03c-5.859-5.859-5.859-15.352,0-21.211
		s15.352-5.859,21.211,0l56.03,56.03c5.859,5.859,5.859,15.352,0,21.211C192.426,198.285,188.588,199.75,184.75,199.75z"/>
	<path style="fill:#CAE8F9;" d="M128.72,398.28c-3.838,0-7.676-1.465-10.605-4.395c-5.859-5.859-5.859-15.352,0-21.211
		l70.693-70.693c5.859-5.859,15.352-5.859,21.211,0s5.859,15.352,0,21.211l-70.693,70.693
		C136.396,396.815,132.558,398.28,128.72,398.28z"/>
</g>
<path style="fill:#A4D9F5;" d="M383.28,398.28c-3.838,0-7.676-1.465-10.605-4.395l-70.693-70.693
	c-5.859-5.859-5.859-15.352,0-21.211s15.352-5.859,21.211,0l70.693,70.693c5.859,5.859,5.859,15.352,0,21.211
	C390.956,396.815,387.118,398.28,383.28,398.28z"/>
<path style="fill:#CAE8F9;" d="M155.072,271H76c-8.291,0-15-6.709-15-15s6.709-15,15-15h79.072c8.291,0,15,6.709,15,15
	C170.072,264.291,163.363,271,155.072,271z"/>
<g>
	<path style="fill:#A4D9F5;" d="M436,271h-79.072c-8.291,0-15-6.709-15-15s6.709-15,15-15H436c8.291,0,15,6.709,15,15
		C451,264.291,444.291,271,436,271z"/>
	<path style="fill:#A4D9F5;" d="M327.25,199.75c-3.838,0-7.676-1.465-10.605-4.395c-5.859-5.859-5.859-15.352,0-21.211l56.03-56.03
		c5.859-5.859,15.352-5.859,21.211,0s5.859,15.352,0,21.211l-56.03,56.03C334.926,198.285,331.088,199.75,327.25,199.75z"/>
</g>
<path style="fill:#CAE8F9;" d="M271,361v75c0,8.399-6.599,15-15,15s-15-6.601-15-15v-75c0-8.401,6.599-15,15-15S271,352.599,271,361
	z"/>
<path style="fill:#A4D9F5;" d="M271,361v75c0,8.399-6.599,15-15,15V346C264.401,346,271,352.599,271,361z"/>
<path style="fill:#CAE8F9;" d="M271,76v150c0,8.399-6.599,15-15,15s-15-6.601-15-15V76c0-8.401,6.599-15,15-15S271,67.599,271,76z"
	/>
<path style="fill:#A4D9F5;" d="M271,76v150c0,8.399-6.599,15-15,15V61C264.401,61,271,67.599,271,76z"/>
<path style="fill:#FD003A;" d="M307.899,166C282.7,166,266.2,179.5,256,193.299C245.799,179.5,229.3,166,204.101,166
	c-37.5,0-66.901,31.199-66.901,71.4c0,42.599,34.501,71.699,82.202,112.2c8.399,6.899,17.399,14.7,26.699,22.8
	c3.001,2.399,6.301,3.6,9.901,3.6s6.899-1.201,9.901-3.6c9.3-8.101,18.3-15.901,26.699-22.8c47.701-40.501,82.202-69.6,82.202-112.2
	C374.801,197.199,345.399,166,307.899,166z"/>
<g>
	<path style="fill:#17ACE8;" d="M256,0c-24.901,0-45,21.099-45,46c0,24.899,20.099,45,45,45s45-20.101,45-45
		C301,21.099,280.901,0,256,0z"/>
	<path style="fill:#17ACE8;" d="M256,421c-24.901,0-45,20.099-45,45c0,24.899,20.099,46,45,46s45-21.101,45-46
		C301,441.099,280.901,421,256,421z"/>
	<path style="fill:#17ACE8;" d="M46,301c-24.814,0-46-20.186-46-45s21.186-45,46-45s45,20.186,45,45S70.814,301,46,301z"/>
</g>
<path style="fill:#1689FC;" d="M466,301c-24.814,0-45-20.186-45-45s20.186-45,45-45s46,20.186,46,45S490.814,301,466,301z"/>
<path style="fill:#17ACE8;" d="M75.692,436.308c-17.549-17.549-17.549-46.084,0-63.633s46.084-17.549,63.633,0
	s17.549,46.084,0,63.633S93.242,453.857,75.692,436.308z"/>
<g>
	<path style="fill:#1689FC;" d="M372.675,139.325c-17.549-17.549-17.549-46.084,0-63.633s46.084-17.549,63.633,0
		s17.549,46.084,0,63.633C418.758,156.875,390.224,156.875,372.675,139.325z"/>
	<path style="fill:#1689FC;" d="M372.675,436.308c-17.549-17.549-17.549-46.084,0-63.633s46.084-17.549,63.633,0
		s17.549,46.084,0,63.633C418.758,453.857,390.224,453.857,372.675,436.308z"/>
</g>
<path style="fill:#17ACE8;" d="M75.692,139.325c-17.549-17.549-17.549-46.084,0-63.633s46.084-17.549,63.633,0
	s17.549,46.084,0,63.633C121.776,156.875,93.242,156.875,75.692,139.325z"/>
<path style="fill:#E50027;" d="M374.801,237.4c0,42.599-34.501,71.699-82.202,112.2c-8.399,6.899-17.399,14.7-26.699,22.8
	c-3.001,2.399-6.301,3.6-9.901,3.6V193.299C266.201,179.5,282.7,166,307.899,166C345.399,166,374.801,197.199,374.801,237.4z"/>
<g>
	<path style="fill:#1689FC;" d="M301,46c0,24.899-20.099,45-45,45V0C280.901,0,301,21.099,301,46z"/>
	<path style="fill:#1689FC;" d="M301,466c0,24.899-20.099,46-45,46v-91C280.901,421,301,441.099,301,466z"/>
</g>
<g>
</g>
<g>
</g>
<g>
</g>
<g>
</g>
<g>
</g>
<g>
</g>
<g>
</g>
<g>
</g>
<g>
</g>
<g>
</g>
<g>
</g>
<g>
</g>
<g>
</g>
<g>
</g>
<g>
</g>
</svg>
